{"title":"zeljka voli pusit","uid":7405420,"size":13577426,"categoryP":"porn","categoryS":"other","magnet":"?xt=urn:btih:6c0cf905ba9d5726ce563f6c6b4d5953605e2d1f&amp;dn=zeljka+voli+pusit&amp;tr=udp%3A%2F%2Ftracker.openbittorrent.com%3A80&amp;tr=udp%3A%2F%2Fopen.demonii.com%3A1337&amp;tr=udp%3A%2F%2Ftracker.coppersurfer.tk%3A6969&amp;tr=udp%3A%2F%2Fexodus.desync.com%3A6969","seeders":0,"leechers":0,"uploader":"wojislav1","files":2,"time":1341229730,"description":"Complete name                            : zeljka voli pusit.avi\nFormat                                   : AVI\nFormat/Info                              : Audio Video Interleave\nFile size                                : 12.9 MiB\nDuration                                 : 2mn 49s\nOverall bit rate                         : 641 Kbps\nWriting application                      : MEncoder SVN-r29352(20090610-gcc4.3.3)\nWriting library                          : MPlayer\n\nVideo\nID                                       : 0\nFormat                                   : MPEG-4 Visual\nFormat profile                           : Advanced Simple@L5\nFormat settings, BVOP                    : 2\nFormat settings, QPel                    : No\nFormat settings, GMC                     : No warppoints\nFormat settings, Matrix                  : Default (H.263)\nCodec ID                                 : XVID\nCodec ID/Hint                            : XviD\nDuration                                 : 2mn 49s\nBit rate                                 : 502 Kbps\nWidth                                    : 640 pixels\nHeight                                   : 480 pixels\nDisplay aspect ratio                     : 4:3\nFrame rate                               : 18.000 fps\nColor space                              : YUV\nChroma subsampling                       : 4:2:0\nBit depth                                : 8 bits\nScan type                                : Progressive\nCompression mode                         : Lossy\nBits/(Pixel*Frame)                       : 0.091\nStream size                              : 10.1 MiB (78%)\nWriting library                          : XviD 1.2.1 (UTC 2008-12-04)\n\nAudio\nID                                       : 1\nFormat                                   : MPEG Audio\nFormat version                           : Version 1\nFormat profile                           : Layer 3\nMode                                     : Joint stereo\nMode extension                           : MS Stereo\nCodec ID                                 : 55\nCodec ID/Hint                            : MP3\nDuration                                 : 2mn 49s\nBit rate mode                            : Constant\nBit rate                                 : 128 Kbps\nChannel(s)                               : 2 channels\nSampling rate                            : 44.1 KHz\nCompression mode                         : Lossy\nDelay relative to video                  : 56ms\nStream size                              : 2.58 MiB (20%)\nAlignment                                : Aligned on interleaves\nInterleave, duration                     : 26 ms (0.47 video frame)\nInterleave, preload duration             : 522 ms\nWriting library                          : LAME3.98\n\n","torrent":{"xt":"urn:btih:6c0cf905ba9d5726ce563f6c6b4d5953605e2d1f","amp;dn":"zeljka+voli+pusit","amp;tr":["udp%3A%2F%2Ftracker.openbittorrent.com%3A80","udp%3A%2F%2Fopen.demonii.com%3A1337","udp%3A%2F%2Ftracker.coppersurfer.tk%3A6969","udp%3A%2F%2Fexodus.desync.com%3A6969"],"infoHash":"6c0cf905ba9d5726ce563f6c6b4d5953605e2d1f","infoHashBuffer":{"type":"Buffer","data":[108,12,249,5,186,157,87,38,206,86,63,108,107,77,89,83,96,94,45,31]},"announce":[],"urlList":[]}}